<svg width="14" height="14" viewBox="0 0 14 14" fill="none" xmlns="http://www.w3.org/2000/svg">
<path d="M13.3327 14L14 13.3327L9.97361 9.30631C10.8068 8.32234 11.3101 7.04713 11.3101 5.65504C11.3101 2.53157 8.77851 0 5.65504 0C2.53157 0 0 2.53157 0 5.65504C0 8.77851 2.53157 11.3101 5.65504 11.3101C7.04713 11.3101 8.32234 10.8068 9.30631 9.97361L13.3327 14ZM10.3676 5.65504C10.3676 8.2573 8.2573 10.3676 5.65504 10.3676C3.05278 10.3676 0.942507 8.2573 0.942507 5.65504C0.942507 3.05278 3.05278 0.942507 5.65504 0.942507C8.2573 0.942507 10.3676 3.05278 10.3676 5.65504Z" fill="white"/>
</svg>
