<svg width="15" height="15" viewBox="0 0 15 15" fill="none" xmlns="http://www.w3.org/2000/svg">
<path d="M4.96291 13.2988L7.68141 10.5803L8.40614 11.3051L5.68764 14.0236C4.38681 15.3254 2.27721 15.3254 0.976385 14.0236C-0.325462 12.7217 -0.325462 10.6131 0.976385 9.31231L3.69489 6.5938L4.41962 7.31853L1.70111 10.037C0.800072 10.9381 0.800072 12.3978 1.70111 13.2988C2.60216 14.1999 4.06187 14.1999 4.96291 13.2988ZM11.3051 8.40614L10.5803 7.68141L13.2988 4.96291C14.1999 4.06187 14.1999 2.60216 13.2988 1.70111C12.3978 0.800072 10.9381 0.800072 10.037 1.70111L7.31853 4.41962L6.5938 3.69489L9.31231 0.976385C10.6131 -0.325462 12.7227 -0.325462 14.0236 0.976385C15.3254 2.27823 15.3254 4.38681 14.0236 5.68764L11.3051 8.40614ZM5.71839 10.0668L10.0668 5.71839L9.28155 4.93318L4.93318 9.28155L5.71839 10.0668Z" fill="#18A0FB"/>
</svg>
