<svg width="16" height="18" viewBox="0 0 16 18" fill="none" xmlns="http://www.w3.org/2000/svg">
<path fill-rule="evenodd" clip-rule="evenodd" d="M12.5715 5.71433V9.14293C12.5715 10.0207 12.9018 10.8229 13.4447 11.4287H2.55545C3.09831 10.8229 3.4286 10.0207 3.4286 9.14293V5.71433C3.4286 3.1886 5.47433 1.14287 8.00006 1.14287C10.5258 1.14287 12.5715 3.1886 12.5715 5.71433ZM13.7144 5.71433V9.14293C13.7144 10.4058 14.7373 11.4287 16.0001 11.4287V12.5715H0V11.4287C1.26287 11.4287 2.28573 10.4058 2.28573 9.14293V5.71433C2.28573 2.55888 4.84461 0 8.00006 0C11.1555 0 13.7144 2.55888 13.7144 5.71433ZM8.00006 16.0001C6.7372 16.0001 5.71433 14.9773 5.71433 13.7144H4.57147C4.57147 15.6081 6.10634 17.143 8.00006 17.143C9.89379 17.143 11.4287 15.6081 11.4287 13.7144H10.2858C10.2858 14.9773 9.26293 16.0001 8.00006 16.0001Z" fill="white"/>
</svg>
