<svg width="25" height="35" viewBox="0 0 25 35" fill="none" xmlns="http://www.w3.org/2000/svg">
<path fill-rule="evenodd" clip-rule="evenodd" d="M0 6.5625C0 2.93781 2.93781 0 6.5625 0H17.5C21.1247 0 24.0625 2.93781 24.0625 6.5625C24.0625 8.84406 22.8966 10.8566 21.1291 12.0312C22.8966 13.2059 24.0625 15.2184 24.0625 17.5C24.0625 21.1247 21.1247 24.0625 17.5 24.0625C15.82 24.0625 14.2844 23.4303 13.125 22.3913V28.4375C13.125 32.0622 10.1872 35 6.5625 35C2.93781 35 0 32.0622 0 28.4375C0 26.1537 1.16594 24.1456 2.93344 22.9688C1.16594 21.7919 0 19.7838 0 17.5C0 15.2184 1.16594 13.2059 2.93344 12.0312C1.16594 10.8566 0 8.84406 0 6.5625ZM6.5625 10.9375C4.14531 10.9375 2.1875 8.97969 2.1875 6.5625C2.1875 4.14531 4.14531 2.1875 6.5625 2.1875H10.9375V10.9375H6.5625ZM10.9375 13.125H6.5625C4.14531 13.125 2.1875 15.0828 2.1875 17.5C2.1875 19.9172 4.14531 21.875 6.5625 21.875H10.9375V13.125ZM10.9375 24.0625H6.5625C4.14531 24.0625 2.1875 26.0203 2.1875 28.4375C2.1875 30.8547 4.14531 32.8125 6.5625 32.8125C8.97969 32.8125 10.9375 30.8547 10.9375 28.4375V24.0625ZM17.5 13.125C15.0828 13.125 13.125 15.0828 13.125 17.5C13.125 19.9172 15.0828 21.875 17.5 21.875C19.9172 21.875 21.875 19.9172 21.875 17.5C21.875 15.0828 19.9172 13.125 17.5 13.125ZM17.5 10.9375C19.9172 10.9375 21.875 8.97969 21.875 6.5625C21.875 4.14531 19.9172 2.1875 17.5 2.1875H13.125V10.9375H17.5Z" fill="white"/>
</svg>
