<svg width="154" height="30" viewBox="0 0 154 30" fill="none" xmlns="http://www.w3.org/2000/svg">
<path d="M30 15C30 6.71578 23.2842 0 15 0C6.71578 0 0 6.71566 0 15C0 22.4869 5.48531 28.6925 12.6562 29.8178V19.3359H8.84766V15H12.6562V11.6953C12.6562 7.93594 14.8957 5.85938 18.3219 5.85938C19.9631 5.85938 21.6797 6.15234 21.6797 6.15234V9.84375H19.7883C17.9248 9.84375 17.3438 11 17.3438 12.1863V15H21.5039L20.8389 19.3359H17.3438V29.8178C24.5147 28.6925 30 22.487 30 15Z" fill="#1877F2"/>
<path d="M20.8389 19.3359L21.5039 15H17.3438V12.1863C17.3438 10.9999 17.9249 9.84375 19.7883 9.84375H21.6797V6.15234C21.6797 6.15234 19.9631 5.85938 18.3219 5.85938C14.8957 5.85938 12.6562 7.93594 12.6562 11.6953V15H8.84766V19.3359H12.6562V29.8178C13.4316 29.9393 14.2152 30.0002 15 30C15.7848 30.0002 16.5684 29.9393 17.3438 29.8178V19.3359H20.8389Z" fill="white"/>
<path d="M89.2569 12.5519H88.25V12.5H77V17.5H84.0644C83.0338 20.4106 80.2644 22.5 77 22.5C72.8581 22.5 69.5 19.1419 69.5 15C69.5 10.8581 72.8581 7.5 77 7.5C78.9119 7.5 80.6513 8.22125 81.9756 9.39937L85.5112 5.86375C83.2787 3.78312 80.2925 2.5 77 2.5C70.0969 2.5 64.5 8.09688 64.5 15C64.5 21.9031 70.0969 27.5 77 27.5C83.9031 27.5 89.5 21.9031 89.5 15C89.5 14.1619 89.4137 13.3438 89.2569 12.5519Z" fill="#FFC107"/>
<path d="M65.9412 9.18188L70.048 12.1938C71.1593 9.4425 73.8505 7.5 76.9999 7.5C78.9118 7.5 80.6512 8.22125 81.9755 9.39937L85.5112 5.86375C83.2787 3.78312 80.2924 2.5 76.9999 2.5C72.1987 2.5 68.0349 5.21062 65.9412 9.18188Z" fill="#FF3D00"/>
<path d="M77 27.4999C80.2287 27.4999 83.1625 26.2643 85.3806 24.2549L81.5118 20.9812C80.2147 21.9677 78.6296 22.5012 77 22.4999C73.7487 22.4999 70.9881 20.4268 69.9481 17.5337L65.8718 20.6743C67.9406 24.7224 72.1418 27.4999 77 27.4999Z" fill="#4CAF50"/>
<path d="M89.2569 12.5519H88.25V12.5H77V17.5H84.0644C83.5714 18.8853 82.6833 20.0957 81.51 20.9819L81.5119 20.9806L85.3806 24.2544C85.1069 24.5031 89.5 21.25 89.5 15C89.5 14.1619 89.4137 13.3438 89.2569 12.5519Z" fill="#1976D2"/>
<g clip-path="url(#clip0_5114_9956)">
<path d="M144.966 0.0150131C144.903 -0.0562368 142.606 0.0431382 140.607 2.21251C138.608 4.38001 138.916 6.86626 138.961 6.93001C139.006 6.99376 141.811 7.09314 143.601 4.57126C145.392 2.04939 145.03 0.0881381 144.966 0.0150131ZM151.18 22.0144C151.09 21.8344 146.821 19.7006 147.218 15.5981C147.616 11.4938 150.359 10.3688 150.402 10.2469C150.445 10.125 149.283 8.76564 148.051 8.07751C147.146 7.59236 146.145 7.3144 145.12 7.26376C144.918 7.25814 144.214 7.08564 142.769 7.48126C141.816 7.74189 139.669 8.58564 139.079 8.61939C138.486 8.65314 136.724 7.64064 134.828 7.37251C133.615 7.13814 132.329 7.61814 131.408 7.98751C130.489 8.35501 128.742 9.40126 127.519 12.1819C126.297 14.9606 126.936 19.3631 127.394 20.7319C127.851 22.0988 128.566 24.3394 129.781 25.9744C130.861 27.8194 132.293 29.1 132.891 29.535C133.489 29.97 135.177 30.2588 136.347 29.6606C137.288 29.0831 138.987 28.7513 139.658 28.7756C140.328 28.8 141.648 29.0644 142.999 29.7863C144.07 30.1556 145.083 30.0019 146.097 29.5894C147.111 29.175 148.579 27.6038 150.293 24.4181C150.944 22.9369 151.24 22.1363 151.18 22.0144Z" fill="black"/>
<path d="M144.966 0.0150131C144.903 -0.0562368 142.606 0.0431382 140.607 2.21251C138.608 4.38001 138.916 6.86626 138.961 6.93001C139.006 6.99376 141.811 7.09314 143.601 4.57126C145.392 2.04939 145.03 0.0881381 144.966 0.0150131ZM151.18 22.0144C151.09 21.8344 146.821 19.7006 147.218 15.5981C147.616 11.4938 150.359 10.3688 150.402 10.2469C150.445 10.125 149.283 8.76564 148.051 8.07751C147.146 7.59236 146.145 7.3144 145.12 7.26376C144.918 7.25814 144.214 7.08564 142.769 7.48126C141.816 7.74189 139.669 8.58564 139.079 8.61939C138.486 8.65314 136.724 7.64064 134.828 7.37251C133.615 7.13814 132.329 7.61814 131.408 7.98751C130.489 8.35501 128.742 9.40126 127.519 12.1819C126.297 14.9606 126.936 19.3631 127.394 20.7319C127.851 22.0988 128.566 24.3394 129.781 25.9744C130.861 27.8194 132.293 29.1 132.891 29.535C133.489 29.97 135.177 30.2588 136.347 29.6606C137.288 29.0831 138.987 28.7513 139.658 28.7756C140.328 28.8 141.648 29.0644 142.999 29.7863C144.07 30.1556 145.083 30.0019 146.097 29.5894C147.111 29.175 148.579 27.6038 150.293 24.4181C150.944 22.9369 151.24 22.1363 151.18 22.0144Z" fill="black"/>
</g>
<defs>
<clipPath id="clip0_5114_9956">
<rect width="30" height="30" fill="white" transform="translate(124)"/>
</clipPath>
</defs>
</svg>
