<svg width="43" height="64" viewBox="0 0 43 64" fill="none" xmlns="http://www.w3.org/2000/svg">
<path d="M10.6207 64C16.4833 64 21.2414 59.2214 21.2414 53.3334V42.6667H10.6207C4.75807 42.6667 0 47.4454 0 53.3334C0 59.2214 4.75807 64 10.6207 64Z" fill="#0ACF83"/>
<path d="M0 32C0 26.112 4.75807 21.3333 10.6207 21.3333H21.2414V42.6666H10.6207C4.75807 42.6666 0 37.888 0 32Z" fill="#A259FF"/>
<path d="M0 10.6667C0 4.77867 4.75807 0 10.6207 0H21.2414V21.3333H10.6207C4.75807 21.3333 0 16.5547 0 10.6667Z" fill="#F24E1E"/>
<path d="M21.2415 0H31.8621C37.7248 0 42.4828 4.77867 42.4828 10.6667C42.4828 16.5547 37.7248 21.3333 31.8621 21.3333H21.2415V0Z" fill="#FF7262"/>
<path d="M42.4828 32C42.4828 37.888 37.7248 42.6666 31.8621 42.6666C25.9995 42.6666 21.2415 37.888 21.2415 32C21.2415 26.112 25.9995 21.3333 31.8621 21.3333C37.7248 21.3333 42.4828 26.112 42.4828 32Z" fill="#1ABCFE"/>
</svg>
